<svg xmlns="http://www.w3.org/2000/svg" xmlns:xlink="http://www.w3.org/1999/xlink" width="123" height="124" viewBox="0 0 123 124">
    <defs>
        <path id="a" d="M0 .413h99.09v93.203H0z"/>
        <path id="c" d="M0 93.731h107.532V.506H0z"/>
        <path id="e" d="M0 .025h12.108v15.25H0z"/>
        <path id="g" d="M.115.088h12.939v15.277H.114z"/>
        <path id="i" d="M.222.16h5.29v15.024H.222z"/>
    </defs>
    <g fill="none" fill-rule="evenodd">
        <g transform="translate(8)">
            <g transform="translate(0 .093)">
                <mask id="b" fill="#fff">
                    <use xlink:href="#a"/>
                </mask>
                <path fill="#B2B2B1" d="M51.692 41.255L20.792.413C8.164 9.864 0 24.893 0 41.82c0 28.607 23.32 51.797 52.085 51.797 20.722 0 38.617-12.036 47.005-29.46L51.692 41.254z" mask="url(#b)"/>
            </g>
            <path fill="#FCC501" d="M33.85 17.122A30.714 30.714 0 0 1 52.2 11.08c16.974 0 30.732 13.679 30.732 30.56 0 4.794-1.113 9.333-3.089 13.37L52.201 41.508 33.85 17.122z"/>
            <path fill="#FEFEFE" d="M21.35 41.582c0-16.874 13.765-30.557 30.738-30.557 16.964 0 30.725 13.683 30.725 30.557 0 16.877-13.761 30.56-30.725 30.56-16.973 0-30.738-13.683-30.738-30.56"/>
            <path stroke="#9C9C9C" stroke-width=".803" d="M21.35 41.582c0-16.874 13.765-30.557 30.738-30.557 16.964 0 30.725 13.683 30.725 30.557 0 16.877-13.761 30.56-30.725 30.56-16.973 0-30.738-13.683-30.738-30.56z"/>
            <path fill="#FCC501" d="M33.73 17.07a30.714 30.714 0 0 1 18.352-6.042c16.972 0 30.73 13.68 30.73 30.56 0 4.795-1.11 9.333-3.087 13.371L52.082 41.456 33.73 17.07z"/>
            <mask id="d" fill="#fff">
                <use xlink:href="#c"/>
            </mask>
            <path fill="#9C9C9C" d="M50.199 21.253h3.766v-3.745h-3.766zM50.199 65.983h3.766v-3.748h-3.766zM27.817 43.517h3.773V39.77h-3.773zM72.799 43.517h3.764V39.77h-3.764z" mask="url(#d)"/>
            <path fill="#9C9C9C" d="M52.088 12.42c-16.174 0-29.335 13.08-29.335 29.162s13.16 29.166 29.335 29.166c16.17 0 29.325-13.084 29.325-29.166 0-16.081-13.155-29.163-29.325-29.163m0 61.117c-17.72 0-32.135-14.335-32.135-31.954 0-17.618 14.415-31.95 32.135-31.95 17.716 0 32.128 14.332 32.128 31.95 0 17.62-14.412 31.954-32.128 31.954" mask="url(#d)"/>
            <path fill="#FEFEFE" d="M16.42 53.005c-.616-.103-1.342-.518-2.176-1.244-.726-.63-1.233-1.028-1.523-1.196-.448-.256-.892-.333-1.33-.23-.355.084-.628.252-.817.503-.19.252-.241.56-.154.926.119.5.388.797.806.89.241.052.6.033 1.077-.059l.38 1.6c-.722.14-1.332.148-1.827.02-.944-.241-1.55-.923-1.816-2.044-.21-.885-.132-1.649.237-2.288.368-.64.96-1.056 1.772-1.247a2.738 2.738 0 0 1 1.792.164c.38.168.832.483 1.359.945l.626.55c.393.342.672.575.841.696.167.121.35.213.55.276l-.87-3.654 1.457-.343 1.364 5.732a4.082 4.082 0 0 1-1.747.003M14.332 45.281c.366-.085.644-.227.835-.427.191-.2.277-.48.258-.843-.02-.417-.185-.727-.492-.931-.307-.204-.685-.295-1.134-.272-.44.022-.807.143-1.1.364-.294.22-.43.547-.408.98.01.205.046.381.105.528.109.26.296.45.561.57l.006 1.517-4.803-.361-.241-4.726 1.441-.073.18 3.508 1.904.212a3.538 3.538 0 0 1-.37-.592 2.565 2.565 0 0 1-.184-.887 2.676 2.676 0 0 1 .627-1.894c.453-.552 1.138-.852 2.056-.899a3.308 3.308 0 0 1 2.177.656c.653.477 1.006 1.223 1.058 2.237.042.817-.144 1.498-.559 2.045-.413.547-1.024.87-1.83.97l-.087-1.682zM14.524 32.628c.041.12.07.239.087.355.016.117.021.273.014.469l-.015.39c-.018.367.001.636.056.81.092.293.298.475.616.546.283.064.505.03.668-.1a.926.926 0 0 0 .32-.537c.08-.36.05-.716-.09-1.066-.14-.35-.487-.594-1.04-.73l-.616-.137zm-1.003.836c.031-.316.032-.546.004-.692-.048-.259-.178-.413-.391-.46-.26-.058-.46-.007-.6.153-.14.159-.25.416-.33.767-.088.395-.054.696.102.904.118.15.294.27.53.364l-.36 1.592c-.547-.159-.968-.415-1.262-.77-.46-.563-.57-1.377-.33-2.442.157-.694.434-1.28.83-1.757.398-.477.978-.63 1.743-.46l2.91.65c.202.045.447.096.735.152.22.037.375.037.465 0a.61.61 0 0 0 .247-.2l.244.055-.405 1.793a1.87 1.87 0 0 1-.384.024 4.285 4.285 0 0 1-.395-.04c.197.285.35.596.456.934.126.403.137.83.036 1.28-.13.575-.401 1.012-.814 1.314-.412.3-.918.384-1.52.25-.78-.174-1.277-.601-1.49-1.281-.115-.373-.141-.89-.078-1.55l.057-.58zM14.779 23.417c.493-.248 1.113-.21 1.86.115l4.011 1.743-.697 1.588-3.624-1.575c-.313-.136-.572-.2-.776-.19-.372.018-.652.24-.838.664-.23.522-.162.977.2 1.366.193.203.473.386.841.545l3.225 1.402-.68 1.549-5.948-2.585.66-1.5.87.378c-.22-.331-.358-.615-.415-.85-.1-.422-.044-.877.17-1.364.268-.61.648-1.038 1.141-1.286m-3.64 1.376c.063-.085.122-.154.176-.208l.42-.427.23-.255a.565.565 0 0 0 .091-.148c.077-.174.083-.316.022-.428a.997.997 0 0 0-.262-.298l.317-.723c.354.231.618.5.79.807.175.306.18.645.016 1.019a2.2 2.2 0 0 1-.294.442 4.453 4.453 0 0 1-.25.298l-.343.377a1.065 1.065 0 0 0-.216.326.52.52 0 0 0-.027.39.77.77 0 0 0 .267.336l-.31.706c-.342-.243-.581-.47-.72-.681-.245-.383-.268-.803-.067-1.26.042-.097.096-.189.16-.273M22.14 19.973c-.135-.42-.469-.815-1-1.188-.533-.373-1.02-.552-1.46-.536-.441.015-.805.225-1.09.63-.287.403-.363.815-.231 1.235.132.419.465.815.998 1.188.532.373 1.02.55 1.463.535.444-.015.809-.226 1.095-.63.286-.404.362-.815.226-1.234m1.551-.568c.238.834.035 1.705-.608 2.613-.644.909-1.4 1.392-2.27 1.451-.869.058-1.695-.186-2.474-.732-.767-.536-1.273-1.225-1.519-2.064-.246-.84-.047-1.714.596-2.623.643-.908 1.405-1.389 2.282-1.441.878-.053 1.7.189 2.467.726.78.546 1.288 1.236 1.526 2.07M24.91 16.223c.236.192.44.292.616.3.309.017.67-.172 1.082-.566.241-.23.4-.45.473-.658.073-.208.041-.383-.097-.525a.482.482 0 0 0-.474-.147c-.183.038-.73.324-1.637.858-.66.378-1.193.574-1.6.585-.406.015-.785-.16-1.138-.525-.416-.43-.604-.963-.563-1.598.041-.634.37-1.247.988-1.837.586-.561 1.175-.902 1.769-1.022.593-.121 1.193.077 1.8.594l-1.225 1.173a1.004 1.004 0 0 0-.493-.244c-.295-.037-.605.101-.93.412-.267.255-.417.479-.451.67-.034.191.004.342.11.453.136.14.295.184.475.13.185-.049.72-.344 1.606-.886.598-.353 1.13-.53 1.597-.532.468.003.87.18 1.21.53.446.462.638 1.004.574 1.627-.063.624-.456 1.282-1.179 1.974-.739.706-1.433 1.072-2.084 1.1-.65.027-1.208-.199-1.67-.677l1.242-1.189z" mask="url(#d)"/>
            <path fill="#FFF" d="M36.635 6.887a.782.782 0 0 0-.52-.402c-.223-.05-.474-.012-.754.115-.287.13-.483.278-.587.445a.536.536 0 0 0-.025.539c.066.144.169.23.308.257.139.026.38.005.728-.062l.793-.156c.444-.084.79-.08 1.041.013.247.092.44.29.579.593.186.405.186.792 0 1.163-.185.37-.527.668-1.027.894-.58.262-1.063.344-1.453.244-.388-.099-.71-.386-.965-.862l.665-.301c.166.276.366.44.599.49.232.052.526-.002.883-.164.31-.14.519-.306.626-.495.106-.19.108-.398.006-.622a.413.413 0 0 0-.307-.254c-.139-.026-.384-.004-.736.066l-.792.156c-.43.083-.764.08-1.003-.012-.24-.09-.427-.281-.563-.577-.176-.385-.178-.753-.005-1.103.172-.35.494-.632.965-.846.48-.216.914-.273 1.303-.17.39.105.686.356.89.756l-.649.295zM39.602 7.459c.114.36.266.6.456.715.19.116.442.124.756.026.35-.109.584-.33.704-.662s.107-.728-.038-1.188l-.72-2.289.362-.113.363-.113 1.351 4.29-.342.107-.347.108-.206-.654a1.997 1.997 0 0 1-.092.271c-.194.463-.523.766-.988.911-.49.152-.894.145-1.215-.022-.322-.167-.56-.494-.712-.98l-.928-2.947.363-.113.362-.114.871 2.767zM42.958 3.404l.356-.05.359-.052.096.661.125-.221c.28-.445.655-.7 1.124-.767.4-.057.737.014 1.008.217.121.09.22.199.299.326l.1-.17c.268-.421.627-.663 1.076-.728.47-.066.849.01 1.14.226.292.218.472.559.54 1.025l.449 3.123-.377.054-.376.053-.414-2.869c-.048-.339-.154-.585-.32-.74-.164-.154-.38-.213-.648-.175a.936.936 0 0 0-.723.49c-.156.28-.203.634-.141 1.064l.36 2.5-.376.053-.376.054-.44-3.049c-.04-.277-.134-.479-.282-.607-.148-.127-.343-.174-.585-.14-.335.048-.588.229-.76.542-.173.314-.228.693-.163 1.14l.343 2.383-.376.053-.376.054-.642-4.45zM53.22 5.31l.01-.487a1.648 1.648 0 0 1-.471.13l-.7.089c-.367.043-.636.124-.807.239a.564.564 0 0 0-.262.48c-.005.253.06.448.196.586.136.139.33.21.584.215.4.007.74-.095 1.02-.306.19-.148.32-.316.384-.505a.823.823 0 0 0 .03-.172c.009-.081.015-.171.017-.27m-1.61 1.876c-.443-.009-.79-.132-1.046-.371-.255-.24-.379-.56-.37-.962.006-.403.133-.721.382-.955.247-.233.606-.376 1.075-.426l1.037-.112c.084-.007.165-.02.241-.037a.39.39 0 0 0 .231-.148.49.49 0 0 0 .086-.284v-.037a.662.662 0 0 0-.265-.57c-.18-.14-.434-.212-.76-.218-.313-.006-.558.062-.737.203-.179.142-.289.355-.33.64l-.702-.013c.045-.493.227-.86.544-1.102.318-.242.767-.358 1.35-.348.549.01.966.136 1.248.378.283.241.42.59.413 1.043l-.045 2.47a.245.245 0 0 0 .066.184.258.258 0 0 0 .187.073 1.392 1.392 0 0 0 .241-.03l-.01.547a1.571 1.571 0 0 1-.233.063 1.07 1.07 0 0 1-.207.021c-.288-.005-.495-.087-.621-.246a.987.987 0 0 1-.174-.445c-.058.07-.124.135-.198.199-.386.332-.855.493-1.403.483M55.614 2.73l.355.051.36.053-.097.656.2-.196a1.567 1.567 0 0 1 1.308-.39c.494.072.854.26 1.083.566.227.305.305.703.234 1.194l-.451 3.046-.377-.055-.376-.055.413-2.793c.058-.39.024-.684-.103-.88-.126-.195-.359-.318-.699-.367a1.045 1.045 0 0 0-.922.284c-.252.242-.412.595-.48 1.061l-.353 2.381-.377-.054-.376-.055.658-4.448zM62.21 4.56c-.41-.115-.745-.068-1.008.138-.264.208-.476.594-.636 1.16-.151.534-.166.974-.042 1.32.123.345.375.572.754.678.355.1.678.047.97-.158.292-.205.5-.526.624-.963.167-.59.194-1.074.08-1.45a1.016 1.016 0 0 0-.741-.725m-1.15 3.908c-.583-.164-.985-.51-1.207-1.04-.222-.528-.229-1.16-.02-1.897.183-.65.499-1.127.945-1.433.446-.306.938-.383 1.474-.233.535.15.894.493 1.078 1.03l.035.097.635-2.245.366.103.366.102-1.683 5.946-.338-.095-.342-.096.168-.59-.13.107c-.41.3-.86.38-1.347.244M66.763 9.341c.34-.193.614-.532.822-1.016.208-.485.265-.916.172-1.295a1.13 1.13 0 0 0-.693-.805 1.136 1.136 0 0 0-1.062.059c-.34.195-.613.535-.821 1.019-.208.484-.266.915-.172 1.293.092.377.323.645.691.801.368.157.722.138 1.063-.056M64.305 8.8c-.183-.554-.135-1.156.145-1.808.282-.653.686-1.106 1.215-1.356.53-.25 1.08-.254 1.656-.01.58.247.96.647 1.144 1.2.181.552.132 1.155-.149 1.81-.28.651-.684 1.102-1.211 1.354-.528.25-1.082.253-1.662.006-.575-.244-.955-.644-1.138-1.196M71.357 13.046c-.24-.105-.41-.19-.51-.252-.28-.178-.439-.364-.476-.56-.036-.196.042-.444.233-.744l1.599-2.5-.528-.333.332-.522.528.334.68-1.063.642.405-.68 1.064.603.381-.333.52-.603-.38-1.598 2.5a.279.279 0 0 0-.027.266.53.53 0 0 0 .225.247l.228.145-.315.492zM75.1 13.618l.301-.384a1.637 1.637 0 0 1-.455-.178l-.612-.348c-.32-.185-.582-.282-.789-.292a.57.57 0 0 0-.5.227c-.157.199-.223.394-.198.585.025.192.137.365.336.52.315.246.649.368 1 .367a1.11 1.11 0 0 0 .614-.173 2.722 2.722 0 0 0 .303-.324m-2.42.534c-.349-.272-.552-.58-.611-.924-.058-.343.037-.673.285-.989.25-.317.545-.495.884-.534.34-.038.711.063 1.116.303l.896.532c.072.045.143.083.216.115a.39.39 0 0 0 .273.02.481.481 0 0 0 .24-.176l.023-.03a.663.663 0 0 0 .135-.613c-.06-.22-.22-.429-.476-.629-.247-.192-.485-.285-.712-.279-.228.006-.445.11-.65.313l-.553-.43c.334-.366.7-.55 1.101-.554.4-.004.83.173 1.289.53.432.336.688.686.768 1.048.08.363-.021.723-.302 1.08L75.07 14.88a.242.242 0 0 0-.058.187.25.25 0 0 0 .105.17 1.464 1.464 0 0 0 .21.121l-.338.43a1.481 1.481 0 0 1-.403-.197c-.227-.175-.342-.365-.347-.568a.988.988 0 0 1 .13-.459c-.087.021-.18.034-.278.04-.509.034-.98-.117-1.413-.453M79.65 11.747l.277.259.277.259-4.253 4.5-.277-.258-.277-.259zM80.676 17.985c.298-.294.474-.587.524-.88.057-.324-.046-.634-.31-.929-.267-.297-.59-.436-.973-.416-.3.014-.605.132-.915.355l1.674 1.87zm-2.882.862c-.426-.475-.608-.983-.549-1.523.06-.54.357-1.047.891-1.52.568-.502 1.15-.758 1.742-.768.593-.01 1.107.23 1.54.714.394.44.547.94.46 1.5-.086.56-.397 1.077-.931 1.55l-.208.172-2.194-2.453c-.317.321-.505.625-.566.91-.072.35.045.696.352 1.039.193.215.422.35.689.403.265.053.509.013.73-.12l.5.56c-.445.244-.878.326-1.297.247-.419-.079-.805-.315-1.16-.71zM83.38 18.282l.202.295.205.299-.552.373.28.014c.505.054.896.286 1.176.693.28.41.386.801.314 1.175-.071.374-.312.7-.724.979l-2.56 1.734-.214-.312-.214-.312 2.346-1.59c.328-.223.522-.446.58-.671.06-.225-.007-.478-.2-.76a1.041 1.041 0 0 0-.835-.483c-.349-.02-.72.102-1.11.367l-2.001 1.356-.214-.313-.215-.312 3.736-2.532zM82.949 26.094a4.224 4.224 0 0 1-.324-.466c-.16-.29-.208-.53-.146-.718.064-.19.252-.37.565-.54l2.613-1.423-.3-.545.545-.297.3.545 1.111-.605.366.663-1.112.606.343.622-.545.297-.343-.623-2.612 1.423a.285.285 0 0 0-.154.22.53.53 0 0 0 .078.324l.13.236-.515.28zM85.237 28.73c.38.095.814.039 1.301-.167.487-.207.829-.48 1.024-.819.197-.339.216-.69.06-1.057a1.128 1.128 0 0 0-.808-.688c-.38-.092-.815-.035-1.302.171-.487.207-.829.479-1.024.816a1.118 1.118 0 0 0-.057 1.055c.157.366.425.595.806.69m-1.398-2.081c.251-.526.706-.928 1.361-1.206.659-.279 1.265-.327 1.822-.145.556.184.956.56 1.202 1.133.247.577.245 1.128-.008 1.652s-.708.926-1.366 1.205c-.656.278-1.262.326-1.817.145-.555-.182-.957-.561-1.205-1.138-.245-.572-.242-1.12.01-1.646M88.8 35.385c.406-.108.704-.277.894-.506.21-.254.275-.573.193-.96a1.162 1.162 0 0 0-.637-.84c-.269-.136-.592-.184-.972-.144l.522 2.45zm-2.933-.671c-.133-.623-.039-1.153.282-1.593.321-.44.831-.734 1.531-.882.744-.156 1.376-.093 1.896.191.52.285.847.744.983 1.38.123.576.007 1.085-.348 1.53-.355.444-.882.74-1.582.887l-.266.047-.685-3.213c-.435.123-.749.295-.945.513-.236.267-.306.626-.21 1.075.06.282.192.511.397.689a.994.994 0 0 0 .693.257l.157.732c-.508-.008-.926-.15-1.25-.425-.325-.274-.543-.67-.653-1.188zM90.998 36.96l.029.357.029.36-.665.053.236.15c.411.295.636.689.677 1.18.04.494-.064.886-.312 1.176-.248.29-.62.454-1.117.494l-3.087.248-.03-.378-.031-.376 2.83-.227c.396-.032.675-.13.838-.297.164-.166.232-.42.204-.76-.03-.363-.191-.64-.485-.83-.293-.19-.676-.266-1.148-.228l-2.413.193-.03-.377-.031-.377 4.506-.36zM92.88 44.63l-.027.377-.028.377-6.194-.452.027-.377.029-.377zM87.902 48.89l.483.078a1.602 1.602 0 0 1-.06-.482l.012-.7c.01-.368-.031-.645-.122-.83a.568.568 0 0 0-.44-.327c-.25-.04-.454-.005-.61.109-.159.113-.257.294-.299.543-.064.392-.013.741.157 1.047.12.21.268.36.447.452a2.534 2.534 0 0 0 .432.109m-1.633-1.855c.072-.434.245-.759.521-.975.275-.216.612-.291 1.01-.227.4.066.698.237.895.515.197.278.286.651.269 1.12l-.04 1.036c-.004.084-.004.165.004.243.008.101.046.184.112.249a.493.493 0 0 0 .271.125l.038.006c.238.039.44-.02.605-.178.164-.157.273-.396.327-.717.05-.307.018-.558-.097-.755-.114-.195-.31-.335-.588-.417l.114-.688c.484.116.822.347 1.018.694.195.347.245.807.15 1.379-.088.54-.274.93-.556 1.173-.281.244-.647.329-1.097.255l-2.451-.4a.25.25 0 0 0-.193.038.252.252 0 0 0-.099.173 1.515 1.515 0 0 0-.006.241l-.541-.087a1.446 1.446 0 0 1-.021-.447c.047-.282.157-.474.335-.575a.99.99 0 0 1 .467-.107 1.674 1.674 0 0 1-.169-.223c-.274-.428-.367-.912-.278-1.45M88.13 53.71c.248.05.463.006.647-.128.183-.135.318-.35.404-.642.09-.301.105-.546.045-.734a.54.54 0 0 0-.392-.37c-.154-.045-.287-.025-.397.063-.112.087-.255.283-.43.589l-.399.698c-.227.39-.457.647-.691.775-.231.126-.507.142-.83.049-.428-.125-.724-.38-.884-.76-.161-.381-.164-.834-.01-1.358.18-.608.434-1.025.764-1.253.33-.228.759-.282 1.287-.163l-.205.697c-.318-.055-.573-.012-.765.13-.191.141-.342.399-.452.773-.096.325-.107.59-.032.795.075.204.23.34.469.41a.415.415 0 0 0 .393-.065c.11-.087.255-.286.431-.597l.4-.698c.217-.377.439-.626.665-.747.224-.122.492-.138.806-.046.408.119.689.357.843.716.154.359.159.785.013 1.28-.148.502-.39.866-.723 1.091-.333.225-.719.284-1.157.177l.2-.682z" mask="url(#d)"/>
            <path fill="#FEFEFE" d="M83.396 62.309c.372.194.706.272 1.002.232.328-.043.594-.235.797-.574.205-.342.24-.691.107-1.047-.104-.28-.31-.534-.616-.762l-1.29 2.151zm-1.694-2.474c.327-.546.759-.872 1.296-.978.535-.106 1.11.023 1.724.387.654.387 1.074.86 1.262 1.42.187.56.114 1.12-.222 1.677-.302.506-.735.801-1.299.888-.564.086-1.152-.053-1.766-.417l-.228-.146 1.691-2.82c-.403-.203-.75-.29-1.043-.262-.357.036-.653.252-.89.646a1.216 1.216 0 0 0-.178.774c.029.268.14.488.334.658l-.386.642c-.368-.349-.577-.734-.628-1.155-.05-.422.06-.86.333-1.314zM83.937 65.07l-.231.272-.235.277-.513-.431.054.25c.088.516-.02.955-.325 1.315-.261.308-.561.476-.899.505a1.17 1.17 0 0 1-.44-.046l.04.193c.08.493-.027.911-.319 1.256-.304.36-.638.555-1.002.586-.362.03-.725-.106-1.087-.41l-2.426-2.032.246-.29.244-.289 2.23 1.869c.262.22.507.333.733.34.227.007.427-.093.601-.298.212-.251.284-.533.212-.844-.07-.313-.272-.608-.606-.888l-1.942-1.627.246-.29.244-.289 2.368 1.985c.216.18.421.27.617.267.196-.003.372-.097.53-.284.218-.257.287-.56.206-.907-.081-.348-.295-.667-.642-.958l-1.85-1.552.245-.289.245-.29 3.456 2.899zM74.838 68.929c-.3.257-.431.566-.391.926.04.359.246.755.621 1.188.37.428.717.68 1.044.756.327.078.646-.017.958-.284.318-.272.45-.586.396-.943-.054-.357-.297-.785-.73-1.286-.315-.364-.636-.576-.965-.64-.329-.061-.64.033-.933.283zm4.088 1.73l-.272.233-.276.236-.419-.485.008.066c.066.575-.103 1.036-.507 1.38-.448.384-.935.534-1.463.451-.526-.083-1.016-.386-1.467-.908-.513-.593-.783-1.17-.81-1.732-.028-.562.193-1.044.66-1.443.387-.331.822-.446 1.305-.347l.042.01-1.49-1.723.288-.247.288-.247 4.113 4.756zM74.886 73.944l-.295.204-.298.206-.442-.632c.016.136.022.265.018.387-.015.478-.196.836-.54 1.074a.647.647 0 0 1-.199.091l-.443-.634.13-.086c.338-.233.529-.514.572-.842.043-.328-.065-.679-.326-1.051l-1.382-1.977.313-.216.312-.216 2.58 3.692zM68.736 75.472c.222.354.47.59.746.704.305.127.632.095.98-.095.35-.192.558-.476.624-.85.053-.295.005-.617-.144-.967l-2.206 1.208zm-.205-2.987c.56-.306 1.099-.37 1.615-.193.516.178.947.578 1.292 1.201.366.663.489 1.283.366 1.86-.122.577-.47 1.022-1.042 1.335-.518.284-1.042.322-1.573.113-.53-.208-.968-.624-1.313-1.247l-.123-.24 2.893-1.584c-.244-.378-.5-.628-.767-.75-.326-.147-.69-.111-1.095.11-.254.14-.437.332-.548.579a.983.983 0 0 0-.046.735l-.659.36c-.14-.485-.125-.923.045-1.312.17-.39.489-.712.955-.967zM64.984 77.746a.784.784 0 0 0 .5.425c.22.061.474.034.759-.079.293-.116.495-.256.608-.418a.538.538 0 0 0 .05-.536c-.06-.148-.157-.24-.295-.272-.138-.032-.381-.023-.73.028l-.8.119c-.447.063-.794.042-1.04-.063-.241-.102-.425-.309-.549-.618-.167-.414-.148-.8.054-1.162.202-.36.56-.642 1.069-.845.591-.235 1.079-.294 1.463-.176.384.117.691.42.923.906l-.678.27c-.154-.283-.345-.456-.576-.519-.229-.062-.526-.02-.89.124-.316.126-.532.28-.648.465-.115.185-.127.392-.036.62a.412.412 0 0 0 .295.268c.137.034.383.023.738-.03l.799-.118c.433-.064.767-.044 1.002.058.235.1.412.3.534.603.157.392.142.76-.047 1.102-.188.342-.523.608-1.004.799-.489.194-.926.23-1.31.109-.384-.122-.668-.388-.854-.797l.663-.263zM60.18 77.714l.125.471c.12-.1.258-.185.418-.253l.65-.273c.34-.141.577-.291.71-.449a.563.563 0 0 0 .122-.533c-.065-.244-.181-.414-.35-.51-.168-.097-.374-.113-.62-.05-.387.102-.685.291-.897.57-.145.194-.222.39-.233.59a.87.87 0 0 0 .02.174c.012.08.03.168.056.263m1.038-2.239c.428-.112.797-.087 1.108.075.31.162.517.437.62.825.102.39.066.73-.108 1.023-.176.291-.481.525-.919.7l-.968.387c-.08.03-.153.063-.222.101a.385.385 0 0 0-.181.205.474.474 0 0 0-.005.296l.01.037a.668.668 0 0 0 .409.477c.212.085.476.086.792.004.302-.08.52-.21.653-.394.134-.185.181-.42.145-.705l.677-.177c.091.486.016.889-.222 1.207-.24.32-.64.552-1.205.699-.53.14-.966.13-1.304-.026-.338-.157-.565-.454-.681-.893l-.631-2.39a.246.246 0 0 0-.115-.159.257.257 0 0 0-.199-.02 1.43 1.43 0 0 0-.224.094l-.14-.528a1.485 1.485 0 0 1 .401-.2c.278-.073.5-.05.666.07a.99.99 0 0 1 .288.38 1.6 1.6 0 0 1 .137-.244c.28-.424.687-.705 1.218-.844M55.85 79.885a.779.779 0 0 0 .381.534c.2.111.45.147.755.106.313-.042.543-.128.692-.258.148-.13.208-.3.18-.508a.414.414 0 0 0-.22-.335c-.126-.065-.364-.115-.716-.15l-.804-.078c-.45-.047-.78-.15-.993-.312-.21-.158-.337-.402-.382-.732-.06-.442.052-.813.336-1.114.285-.301.7-.488 1.244-.561.631-.086 1.118-.025 1.462.182.343.207.568.574.674 1.103l-.724.098c-.08-.312-.223-.526-.431-.642-.208-.117-.506-.149-.894-.096-.338.045-.585.144-.742.295-.158.15-.22.349-.186.592a.41.41 0 0 0 .22.332c.125.065.366.114.723.148l.804.079c.435.043.754.142.957.299.204.154.327.391.37.713.058.419-.047.772-.314 1.058-.266.286-.656.464-1.17.533-.521.07-.954 0-1.296-.212-.343-.21-.554-.537-.634-.979l.708-.095z" mask="url(#d)"/>
            <path fill="#FCC501" d="M84.586 92.161c.015-.238-.06-.49-.222-.754-.23-.37-.487-.578-.774-.622a.715.715 0 0 0-.49.1c-.233.143-.35.335-.35.576-.002.241.077.492.237.751.173.28.366.47.58.57.215.1.435.08.66-.057.226-.137.345-.325.36-.564m-1.527-2.037c.193-.007.378.034.556.121l-.892-1.444.807-.493 2.524 4.089-.774.472-.259-.419a1.3 1.3 0 0 1-.146.629c-.095.17-.25.321-.466.453-.356.217-.744.256-1.163.119-.42-.138-.769-.431-1.046-.88-.318-.516-.449-.995-.393-1.438.057-.442.285-.786.686-1.03.184-.112.372-.172.566-.18M86.094 89.118a.96.96 0 0 0 .118.591l1.312-.926c-.157-.192-.334-.296-.53-.315a.824.824 0 0 0-.563.163c-.196.138-.308.3-.337.487m.672-1.459c.269-.053.539-.028.81.073.243.088.462.233.66.435.115.119.26.304.435.557l-2.121 1.498c.219.283.466.414.74.396a.952.952 0 0 0 .498-.187.784.784 0 0 0 .329-.432.79.79 0 0 0 .014-.31l.778-.549c.102.187.133.428.091.724-.06.465-.325.864-.795 1.196a1.955 1.955 0 0 1-1.28.368c-.466-.029-.89-.31-1.272-.847-.359-.501-.5-.98-.423-1.437.076-.457.328-.836.755-1.137.253-.179.514-.295.781-.348M89.903 88.228c.12.116.228.18.324.193.168.024.375-.063.618-.26a.984.984 0 0 0 .29-.338c.05-.11.041-.208-.028-.292a.264.264 0 0 0-.252-.103c-.103.013-.415.144-.937.394-.38.177-.68.259-.903.246-.223-.01-.422-.124-.599-.34a1.104 1.104 0 0 1-.233-.901c.052-.346.262-.666.628-.96.346-.28.685-.44 1.016-.478.33-.039.65.098.957.41l-.725.584a.555.555 0 0 0-.259-.156c-.16-.034-.336.027-.528.182-.16.128-.252.243-.278.346-.028.104-.015.188.038.254a.247.247 0 0 0 .254.093c.104-.019.41-.155.92-.41.345-.166.646-.238.901-.218.256.024.467.14.637.347.223.273.303.58.238.917-.064.339-.31.68-.739 1.026-.437.352-.835.52-1.192.505a1.157 1.157 0 0 1-.883-.448l.735-.593zM93.967 84.958c-.032-.236-.156-.468-.368-.696-.297-.32-.59-.472-.88-.46a.711.711 0 0 0-.462.195c-.2.184-.276.395-.23.632.046.237.173.467.381.69.225.24.452.39.682.446.23.056.441-.005.635-.184s.275-.386.242-.623m-1.898-1.7c.188-.045.378-.042.569.01l-1.159-1.243.696-.64 3.278 3.519-.666.614-.336-.361c.046.244.04.46-.02.645s-.182.363-.368.535c-.306.282-.68.396-1.117.342-.44-.053-.838-.273-1.197-.658-.415-.445-.638-.89-.67-1.335-.031-.444.125-.826.47-1.143.159-.146.332-.241.52-.286M94.847 81.681a.968.968 0 0 0 .231.558l1.106-1.163c-.192-.157-.386-.226-.582-.206a.816.816 0 0 0-.52.27c-.165.172-.243.353-.235.541m.373-1.56c.253-.105.523-.133.808-.086.256.04.5.139.733.299.137.094.316.248.536.462l-1.786 1.88c.27.235.538.316.804.245a.951.951 0 0 0 .451-.28.784.784 0 0 0 .237-.487.76.76 0 0 0-.046-.307l.655-.689c.137.163.214.393.232.691.032.47-.15.912-.546 1.328a1.95 1.95 0 0 1-1.183.609c-.462.062-.934-.132-1.414-.583-.45-.423-.682-.866-.697-1.328-.015-.463.158-.883.518-1.262.213-.225.446-.389.698-.493M97.504 77.853l-.502-.389c.171-.238.282-.412.334-.52a.86.86 0 0 0 .085-.512.808.808 0 0 0-.157-.351.753.753 0 0 0-.127-.145l.48-.612 3.747 2.907-.589.75-2.584-2.004-.687.876zM101.433 73.984c.007-.25-.127-.469-.403-.656-.222-.15-.434-.22-.634-.204a.624.624 0 0 0-.486.292.638.638 0 0 0-.12.412c.014.225.16.432.436.62.233.157.44.229.62.213.182-.014.34-.12.473-.316a.64.64 0 0 0 .114-.36m-2.444.232c-.096-.418-.01-.82.254-1.206.408-.594.952-.822 1.632-.684.386.078.824.283 1.312.615.475.322.83.651 1.066.987.446.64.46 1.267.037 1.88a1.572 1.572 0 0 1-.802.612c-.334.115-.68.077-1.038-.116l.525-.765c.128.061.255.076.381.047a.55.55 0 0 0 .325-.242c.174-.253.155-.526-.056-.82-.117-.16-.32-.35-.608-.566.041.13.057.25.05.361-.011.203-.09.409-.234.619-.214.31-.51.512-.891.607-.381.094-.774.003-1.18-.273-.42-.286-.678-.637-.773-1.056M103.427 70.83c-.008-.25-.156-.46-.444-.63-.231-.136-.446-.19-.646-.162a.624.624 0 0 0-.466.321.636.636 0 0 0-.093.419c.029.224.187.42.475.59.241.144.453.202.632.175.18-.026.331-.142.452-.345a.647.647 0 0 0 .09-.368m-2.424.387c-.122-.412-.063-.818.177-1.22.37-.618.898-.88 1.585-.785.39.053.84.23 1.35.53.494.292.87.598 1.125.918.487.61.54 1.235.158 1.875a1.567 1.567 0 0 1-.762.66c-.326.136-.673.12-1.042-.05l.474-.796c.132.052.26.06.384.022a.548.548 0 0 0 .308-.262c.158-.263.12-.535-.109-.815-.127-.153-.34-.328-.642-.526a1 1 0 0 1 .072.357c.002.203-.063.413-.193.632a1.469 1.469 0 0 1-.85.662c-.375.119-.773.052-1.196-.197-.438-.258-.717-.594-.839-1.005M105.57 68.997c.169.086.322.13.46.132.257.004.453-.127.59-.391a.679.679 0 0 0 .048-.51c-.05-.177-.18-.32-.39-.426-.278-.142-.522-.124-.73.053-.118.1-.246.288-.388.562l-.595-.303c.134-.27.203-.47.209-.6.012-.226-.106-.401-.355-.528a.625.625 0 0 0-.466-.059c-.15.042-.268.148-.355.318-.1.195-.111.37-.034.525.078.155.221.283.432.385l-.396.772a2.357 2.357 0 0 1-.544-.41 1.517 1.517 0 0 1-.295-.552 1.23 1.23 0 0 1-.029-.502c.023-.175.091-.371.202-.588.207-.402.478-.673.813-.813.335-.141.68-.122 1.033.057.249.126.421.306.517.54a.85.85 0 0 1 .07.402c.038-.075.16-.15.362-.226.305-.11.627-.08.968.093.358.181.61.465.754.848.146.385.094.82-.153 1.302-.306.596-.714.91-1.225.944-.27.016-.578-.054-.921-.212l.417-.813z" mask="url(#d)"/>
            <path fill="#FEFEFE" d="M18.967 60.32l-1.388.702-1.109-2.168-2.18 1.103-.71-1.39 2.178-1.103-1.109-2.167 1.387-.702 1.11 2.168 2.19-1.11.712 1.391-2.19 1.109z" mask="url(#d)"/>
        </g>
        <g transform="translate(0 107.965)">
            <mask id="f" fill="#fff">
                <use xlink:href="#e"/>
            </mask>
            <path fill="#FFF" d="M12.108.303H7.834V1.65h-.042A2.371 2.371 0 0 0 6.648.43C6.115.162 5.518.026 4.856.026c-1.525 0-2.72.506-3.583 1.518C.424 2.542 0 3.803 0 5.33c0 .756.093 1.462.28 2.118.202.655.497 1.233.886 1.732.402.485.906.87 1.51 1.155.605.27 1.31.406 2.115.406 1.281 0 2.281-.513 3-1.54h.043v1.027c0 .257-.028.535-.086.834a2.67 2.67 0 0 1-.259.813c-.115.257-.288.47-.518.641-.216.171-.489.257-.82.257-.244 0-.475-.078-.69-.235a2.396 2.396 0 0 1-.562-.578l-.043-.064a4.32 4.32 0 0 1-.194-.32H.432c.1.712.324 1.31.669 1.796.36.499.805.884 1.338 1.155.546.27 1.137.463 1.77.577.647.114 1.338.171 2.071.171 1.238 0 2.253-.164 3.044-.492.791-.313 1.388-.734 1.791-1.261.403-.528.67-1.091.799-1.69.129-.584.194-1.205.194-1.86V.303zM4.273 5.308c0-.628.159-1.148.475-1.561.317-.428.763-.642 1.338-.642.605 0 1.065.206 1.382.62.316.4.475.92.475 1.561 0 .371-.022.713-.065 1.027a3.43 3.43 0 0 1-.238.855 1.412 1.412 0 0 1-.54.62c-.23.158-.532.236-.906.236-.36 0-.668-.078-.928-.235a1.925 1.925 0 0 1-.604-.62 3.003 3.003 0 0 1-.302-.878 5.428 5.428 0 0 1-.087-.983z" mask="url(#f)"/>
        </g>
        <path fill="#FFF" d="M14.234 119.365h4.32v-4.392c0-1.158.219-2.008.655-2.55.437-.544 1.091-.815 1.964-.815.393 0 .706.021.939.064.232.043.487.115.763.214v-3.75a4.988 4.988 0 0 0-1.265-.17c-.757 0-1.39.17-1.9.513-.494.33-.922.843-1.286 1.543h-.044v-1.778h-4.146v11.12zM36.092 108.46h-4.287v5.872c0 .414-.05.764-.151 1.05-.102.286-.239.507-.412.665-.159.157-.34.27-.541.342a2.22 2.22 0 0 1-.606.086c-.578 0-.96-.178-1.148-.536-.173-.357-.26-.907-.26-1.65v-5.828H24.4v7.628c0 1.214.369 2.15 1.105 2.807.75.643 1.667.964 2.75.964 1.63 0 2.85-.564 3.658-1.692h.044v1.414h4.135V108.46zM38.126 122.834h4.29v-4.779h.044c.332.467.765.835 1.3 1.105a4.175 4.175 0 0 0 1.777.381c.896 0 1.654-.162 2.275-.488.636-.34 1.134-.786 1.495-1.338a5.377 5.377 0 0 0 .78-1.848 8.84 8.84 0 0 0 .239-2.06c0-.709-.102-1.41-.303-2.103a5.867 5.867 0 0 0-.889-1.891 4.213 4.213 0 0 0-1.495-1.338c-.593-.34-1.271-.51-2.037-.51-.506 0-.94.042-1.3.128a3.353 3.353 0 0 0-.91.34c-.232.14-.427.29-.586.445a5.85 5.85 0 0 0-.498.574h-.043v-1.211h-4.14v14.593zm4.139-9.07c0-.368.028-.708.086-1.02a3.1 3.1 0 0 1 .282-.87c.145-.255.34-.46.585-.617.26-.155.57-.233.932-.233.361 0 .664.078.91.233.26.156.455.369.585.638.144.255.246.538.303.85.059.311.087.65.087 1.02 0 .353-.028.693-.087 1.018a2.703 2.703 0 0 1-.303.85 1.51 1.51 0 0 1-.585.616c-.246.156-.549.234-.91.234s-.672-.078-.932-.234a1.724 1.724 0 0 1-.585-.616 3.438 3.438 0 0 1-.282-.87 5.462 5.462 0 0 1-.086-.999zM59.783 113.655c0 .334-.022.655-.065.962-.043.307-.129.593-.258.858-.13.264-.316.48-.56.648-.245.153-.561.23-.95.23-.387 0-.703-.077-.947-.23a1.65 1.65 0 0 1-.56-.648 3.115 3.115 0 0 1-.26-.858 6.903 6.903 0 0 1-.064-.962c0-.335.021-.649.064-.941a2.85 2.85 0 0 1 .26-.858c.128-.265.315-.474.56-.628.258-.167.574-.25.948-.25.388 0 .704.083.948.25.245.154.432.363.56.628.13.265.216.55.26.858.042.292.064.606.064.94m4.268 0c0-.766-.122-1.492-.366-2.175a4.99 4.99 0 0 0-1.143-1.82c-.503-.53-1.142-.94-1.918-1.234-.762-.306-1.653-.46-2.673-.46s-1.918.154-2.695.46c-.761.293-1.4.705-1.918 1.235a5.124 5.124 0 0 0-1.12 1.82 6.416 6.416 0 0 0-.367 2.175c0 .767.122 1.492.366 2.175a5.33 5.33 0 0 0 1.121 1.84c.518.53 1.157.949 1.918 1.255.777.293 1.675.44 2.695.44 1.02 0 1.911-.147 2.673-.44.776-.306 1.415-.725 1.918-1.254a4.988 4.988 0 0 0 1.143-1.82c.244-.697.366-1.43.366-2.196M67.416 108.223l-2.348 11.142h1.81l1.25-5.84a9.186 9.186 0 0 1 .388-1.38c.143-.387.409-.768.797-1.141a5.02 5.02 0 0 1 1.228-.992c.503-.287 1.006-.43 1.509-.43.503 0 .883.128 1.142.387.273.259.41.618.41 1.078 0 .129-.036.38-.108.754-.058.373-.137.776-.237 1.207l-1.337 6.357h1.832l1.229-5.754c.1-.474.222-.927.366-1.357a3.15 3.15 0 0 1 .668-1.143c.158-.2.345-.395.56-.581.216-.187.446-.345.69-.475.244-.143.496-.258.754-.345.274-.085.539-.129.798-.129.488 0 .89.144 1.206.431.331.288.497.647.497 1.078 0 .158-.022.359-.065.603-.029.23-.065.431-.108.604l-1.552 7.068h1.832l1.401-6.68c.072-.317.144-.683.216-1.1a6.69 6.69 0 0 0 .107-1.12c0-.46-.086-.848-.259-1.164a1.992 1.992 0 0 0-.71-.754 2.814 2.814 0 0 0-.992-.431c-.374-.1-.754-.15-1.142-.15-.747 0-1.466.186-2.155.56a4.741 4.741 0 0 0-1.66 1.443c-.158-.732-.488-1.25-.99-1.551-.504-.302-1.108-.453-1.811-.453-.776 0-1.502.18-2.177.539-.66.344-1.228.819-1.702 1.422l-.044-.043.41-1.66h-1.703z"/>
        <g transform="translate(82.351 107.965)">
            <mask id="h" fill="#fff">
                <use xlink:href="#g"/>
            </mask>
            <path fill="#FFF" d="M11.183 4.549c0 .603-.096 1.22-.286 1.852a5.664 5.664 0 0 1-.858 1.725A4.829 4.829 0 0 1 8.63 9.41c-.557.322-1.21.484-1.958.484-.924 0-1.636-.267-2.135-.8-.484-.533-.726-1.206-.726-2.02 0-.575.096-1.178.286-1.81a6.733 6.733 0 0 1 .859-1.746c.38-.533.85-.975 1.408-1.326a3.475 3.475 0 0 1 1.892-.526c1.027 0 1.768.26 2.223.779.47.519.704 1.22.704 2.104zM3.415.34l-3.3 15.025H1.94l1.21-5.808h.044a2.1 2.1 0 0 0 .528.926c.264.238.558.435.88.59.338.14.69.237 1.057.293.381.056.74.085 1.078.085.998 0 1.885-.204 2.663-.61a6.028 6.028 0 0 0 1.98-1.6 7.04 7.04 0 0 0 1.233-2.209 7.4 7.4 0 0 0 .44-2.483 5.46 5.46 0 0 0-.287-1.81 3.781 3.781 0 0 0-.858-1.41 3.802 3.802 0 0 0-1.408-.904C9.958.2 9.32.088 8.586.088c-.763 0-1.445.126-2.046.378-.587.253-1.16.73-1.717 1.431H4.78L5.175.34h-1.76z" mask="url(#h)"/>
        </g>
        <g transform="translate(95.568 104)">
            <mask id="j" fill="#fff">
                <use xlink:href="#i"/>
            </mask>
            <path fill="#FFF" d="M3.59.16L.222 15.184H2.12L5.512.16z" mask="url(#j)"/>
        </g>
        <path fill="#FFF" d="M109.456 112.63h-6.604c.133-.422.309-.816.529-1.182.22-.38.492-.71.814-.992.323-.281.697-.5 1.123-.654.44-.17.932-.254 1.475-.254.513 0 .946.092 1.298.275.353.169.631.4.836.697.221.281.368.612.44.992.089.366.118.739.089 1.118m-6.868 1.584h8.563c.029-.155.066-.359.11-.612.044-.254.066-.521.066-.802 0-1.535-.39-2.723-1.167-3.568-.763-.845-1.98-1.267-3.654-1.267a5.22 5.22 0 0 0-2.245.507 5.83 5.83 0 0 0-1.87 1.435c-.53.62-.955 1.365-1.277 2.238-.308.858-.462 1.808-.462 2.85 0 .479.073.978.22 1.499.146.507.403.978.77 1.414.367.423.859.774 1.475 1.056.63.267 1.416.4 2.355.4a6.56 6.56 0 0 0 1.76-.232 5.424 5.424 0 0 0 1.52-.675c.454-.31.843-.69 1.166-1.14.323-.464.558-1 .704-1.604h-1.87c-.264.675-.668 1.196-1.211 1.562-.543.352-1.233.528-2.07.528-.38 0-.747-.057-1.1-.17a3.548 3.548 0 0 1-.946-.506 2.452 2.452 0 0 1-.66-.823 2.611 2.611 0 0 1-.243-1.14c0-.324.023-.64.066-.95M113.721 114.805c0-.563.089-1.154.267-1.773.192-.62.473-1.183.843-1.69.37-.52.828-.95 1.375-1.287.548-.338 1.184-.507 1.909-.507.517 0 .961.085 1.33.254.386.154.704.373.955.654.251.267.436.591.555.971.118.38.177.781.177 1.203 0 .535-.096 1.105-.288 1.71a5.634 5.634 0 0 1-.821 1.69 4.64 4.64 0 0 1-1.332 1.266c-.517.338-1.123.507-1.819.507-1.035 0-1.82-.275-2.352-.824-.532-.548-.799-1.273-.799-2.174m-1.886.021c0 .662.11 1.274.333 1.837.222.549.54 1.027.954 1.435.414.394.918.704 1.509.929.606.225 1.287.338 2.041.338 1.006 0 1.901-.19 2.685-.57a6.159 6.159 0 0 0 1.998-1.52 6.755 6.755 0 0 0 1.242-2.217c.281-.83.422-1.689.422-2.575 0-1.478-.408-2.597-1.221-3.357-.814-.774-1.997-1.16-3.55-1.16-1.006 0-1.909.189-2.707.569a6.418 6.418 0 0 0-2.02 1.52 6.832 6.832 0 0 0-1.264 2.196 7.982 7.982 0 0 0-.422 2.575"/>
    </g>
</svg>
